<svg width="134" height="37" viewBox="0 0 134 37" fill="none" xmlns="http://www.w3.org/2000/svg">
<path d="M19.971 0.274526C19.4198 0.0187816 18.8032 -0.0608515 18.2052 0.0464579C17.6071 0.153767 17.0566 0.44281 16.6286 0.874275L10.3872 7.11994L18.9529 15.6912C19.2291 15.9691 19.3841 16.345 19.3841 16.7368C19.3841 17.1287 19.2291 17.5046 18.9529 17.7824L17.9345 18.8016C17.3596 19.3765 16.446 19.3765 15.8447 18.8016L7.27978 10.2296L6.86104 10.6478L0.881529 16.6583C0.602535 16.9303 0.3808 17.2555 0.2294 17.6147C0.0779999 17.9739 0 18.3597 0 18.7495C0 19.1393 0.0779999 19.5252 0.2294 19.8844C0.3808 20.2435 0.602535 20.5687 0.881529 20.8408L16.1325 36.1268C16.9945 36.9894 18.3012 37.2245 19.4229 36.7803C26.6547 33.8012 31.7486 26.693 31.7486 18.409C31.7486 10.3081 26.8913 3.35692 19.971 0.274526ZM21.3294 23.8987C20.0759 23.8987 19.0574 22.8795 19.0574 21.6496C19.0578 21.0468 19.2973 20.4688 19.7233 20.0425C20.1493 19.6162 20.7269 19.3765 21.3294 19.3761C22.5828 19.3761 23.5749 20.3953 23.5749 21.6496C23.5745 22.2455 23.3378 22.8169 22.9167 23.2382C22.4957 23.6596 21.9248 23.8966 21.3294 23.8971V23.8987Z" fill="#0077E5"/>
<path d="M53.6623 10.2768V11.9824H46.6783V17.399H52.3485V19.1047H46.6783V26.3422H44.5808V10.2768H53.6623Z" fill="black"/>
<path d="M55.4119 19.9806C55.4119 18.6898 55.6731 17.5604 56.1955 16.5923C56.718 15.6089 57.4325 14.8482 58.3391 14.3104C59.2611 13.7726 60.283 13.5037 61.4047 13.5037C62.5111 13.5037 63.4715 13.7419 64.2859 14.2182C65.1003 14.6946 65.7073 15.2939 66.1068 16.0161V13.7111H68.2273V26.3422H66.1068V23.9912C65.6919 24.7287 65.0696 25.3434 64.2398 25.8351C63.4254 26.3115 62.4727 26.5496 61.3817 26.5496C60.2599 26.5496 59.2457 26.273 58.3391 25.7199C57.4325 25.1667 56.718 24.3907 56.1955 23.3919C55.6731 22.3931 55.4119 21.256 55.4119 19.9806ZM66.1068 20.0036C66.1068 19.0509 65.9147 18.2211 65.5305 17.5143C65.1464 16.8074 64.6239 16.2696 63.9632 15.9008C63.3178 15.5167 62.6033 15.3246 61.8196 15.3246C61.0359 15.3246 60.3214 15.509 59.676 15.8778C59.0306 16.2466 58.5158 16.7844 58.1317 17.4912C57.7475 18.1981 57.5555 19.0279 57.5555 19.9806C57.5555 20.9486 57.7475 21.7938 58.1317 22.516C58.5158 23.2228 59.0306 23.7683 59.676 24.1525C60.3214 24.5213 61.0359 24.7057 61.8196 24.7057C62.6033 24.7057 63.3178 24.5213 63.9632 24.1525C64.6239 23.7683 65.1464 23.2228 65.5305 22.516C65.9147 21.7938 66.1068 20.9563 66.1068 20.0036Z" fill="black"/>
<path d="M76.2435 26.5496C75.2754 26.5496 74.4072 26.3883 73.6389 26.0656C72.8706 25.7275 72.2636 25.2666 71.818 24.6826C71.3724 24.0834 71.1265 23.3996 71.0804 22.6312H73.247C73.3085 23.2613 73.6005 23.776 74.1229 24.1756C74.6607 24.5751 75.3599 24.7748 76.2204 24.7748C77.0195 24.7748 77.6495 24.5981 78.1105 24.2447C78.5715 23.8913 78.8019 23.4457 78.8019 22.9078C78.8019 22.3547 78.5561 21.9474 78.0644 21.6862C77.5726 21.4096 76.812 21.1407 75.7825 20.8795C74.8451 20.6336 74.0768 20.3878 73.4775 20.1419C72.8936 19.8807 72.3865 19.5042 71.9563 19.0125C71.5414 18.5054 71.3339 17.8447 71.3339 17.0302C71.3339 16.3849 71.526 15.7933 71.9102 15.2554C72.2943 14.7176 72.8398 14.295 73.5467 13.9877C74.2535 13.665 75.0603 13.5037 75.9669 13.5037C77.3652 13.5037 78.4946 13.8571 79.3551 14.564C80.2156 15.2708 80.6766 16.2389 80.7381 17.4682H78.6406C78.5945 16.8074 78.3256 16.2773 77.8339 15.8778C77.3575 15.4783 76.7121 15.2785 75.8977 15.2785C75.1448 15.2785 74.5455 15.4398 74.0999 15.7625C73.6543 16.0852 73.4314 16.5078 73.4314 17.0302C73.4314 17.4451 73.5621 17.7909 73.8233 18.0675C74.0999 18.3287 74.4379 18.5438 74.8375 18.7128C75.2523 18.8665 75.8209 19.0432 76.5431 19.243C77.4497 19.4888 78.1873 19.7347 78.7559 19.9806C79.3244 20.2111 79.8084 20.5645 80.208 21.0408C80.6229 21.5172 80.838 22.1395 80.8533 22.9078C80.8533 23.5993 80.6613 24.2217 80.2771 24.7748C79.893 25.328 79.3475 25.766 78.6406 26.0887C77.9491 26.396 77.1501 26.5496 76.2435 26.5496Z" fill="black"/>
<path d="M86.3728 15.4398V22.8848C86.3728 23.4994 86.5034 23.9374 86.7646 24.1986C87.0258 24.4445 87.4791 24.5674 88.1245 24.5674H89.6688V26.3422H87.7788C86.611 26.3422 85.7351 26.0733 85.1512 25.5355C84.5672 24.9976 84.2753 24.1141 84.2753 22.8848V15.4398H82.6388V13.7111H84.2753V10.5303H86.3728V13.7111H89.6688V15.4398H86.3728Z" fill="black"/>
<path d="M103.758 15.2324C103.758 16.0929 103.551 16.8996 103.136 17.6526C102.736 18.4055 102.098 19.0125 101.223 19.4735C100.362 19.9345 99.271 20.165 97.9495 20.165H95.2527V26.3422H92.0258V10.2537H97.9495C99.1942 10.2537 100.254 10.4689 101.13 10.8991C102.006 11.3294 102.659 11.921 103.09 12.6739C103.535 13.4269 103.758 14.2797 103.758 15.2324ZM97.8112 17.5604C98.7025 17.5604 99.3632 17.3606 99.7935 16.9611C100.224 16.5462 100.439 15.97 100.439 15.2324C100.439 13.665 99.563 12.8814 97.8112 12.8814H95.2527V17.5604H97.8112Z" fill="black"/>
<path d="M105.219 19.9114C105.219 18.6207 105.473 17.4759 105.98 16.4771C106.502 15.4783 107.201 14.7099 108.077 14.1721C108.969 13.6343 109.96 13.3654 111.051 13.3654C112.003 13.3654 112.833 13.5575 113.54 13.9416C114.262 14.3258 114.839 14.8098 115.269 15.3937V13.5728H118.519V26.3422H115.269V24.4752C114.854 25.0745 114.278 25.5739 113.54 25.9734C112.818 26.3576 111.98 26.5496 111.028 26.5496C109.952 26.5496 108.969 26.273 108.077 25.7199C107.201 25.1667 106.502 24.3907 105.98 23.3919C105.473 22.3777 105.219 21.2175 105.219 19.9114ZM115.269 19.9575C115.269 19.1738 115.115 18.5054 114.808 17.9522C114.5 17.3837 114.086 16.9534 113.563 16.6615C113.041 16.3541 112.48 16.2005 111.881 16.2005C111.281 16.2005 110.728 16.3464 110.221 16.6384C109.714 16.9304 109.299 17.3606 108.976 17.9292C108.669 18.4824 108.515 19.1431 108.515 19.9114C108.515 20.6797 108.669 21.3558 108.976 21.9398C109.299 22.5083 109.714 22.9463 110.221 23.2536C110.743 23.5609 111.297 23.7146 111.881 23.7146C112.48 23.7146 113.041 23.5686 113.563 23.2766C114.086 22.9693 114.5 22.539 114.808 21.9859C115.115 21.4173 115.269 20.7412 115.269 19.9575Z" fill="black"/>
<path d="M133.887 13.5728L125.981 32.3811H122.546L125.312 26.0195L120.195 13.5728H123.814L127.11 22.4929L130.452 13.5728H133.887Z" fill="black"/>
</svg>
