<svg width="19" height="22" viewBox="0 0 19 22" fill="none" xmlns="http://www.w3.org/2000/svg">
<path d="M8.56568 20.3478L8.42426 19.3578L8.56568 20.3478ZM4.6896 20.2049L5.3448 19.4494L4.6896 20.2049ZM17.2664 18.3637L18.0218 19.0189L17.2664 18.3637ZM17.2664 3.63628L16.5109 4.29148L17.2664 3.63628ZM8.42426 2.64219L12.7071 3.25403L12.99 1.27413L8.70711 0.662291L8.42426 2.64219ZM17 8.20377V13.7962H19V8.20377H17ZM12.7071 18.746L8.42426 19.3578L8.7071 21.3377L12.9899 20.7259L12.7071 18.746ZM5 6.13193V5.61204H3V6.13193H5ZM5 16.388V16.066H3V16.388H5ZM8.42426 19.3578C7.33214 19.5138 6.61808 19.6135 6.08782 19.6144C5.58584 19.6153 5.43048 19.5237 5.3448 19.4494L4.03439 20.9603C4.63831 21.4841 5.35882 21.6157 6.09141 21.6144C6.79571 21.6131 7.67489 21.4852 8.7071 21.3377L8.42426 19.3578ZM3 16.388C3 17.4307 2.99765 18.3191 3.096 19.0165C3.1983 19.7419 3.43048 20.4366 4.03439 20.9603L5.3448 19.4494C5.25912 19.3751 5.1465 19.2343 5.0764 18.7372C5.00235 18.2121 5 17.4912 5 16.388H3ZM17 13.7962C17 15.0628 16.9981 15.919 16.9162 16.5678C16.8377 17.1887 16.6989 17.4918 16.5109 17.7085L18.0218 19.0189C18.5675 18.3898 18.7954 17.6496 18.9004 16.8185C19.0019 16.0153 19 15.0107 19 13.7962H17ZM12.9899 20.7259C14.1922 20.5541 15.187 20.4139 15.9677 20.1999C16.7757 19.9784 17.4762 19.6481 18.0218 19.0189L16.5109 17.7085C16.3229 17.9253 16.0426 18.1056 15.439 18.271C14.8083 18.4439 13.961 18.5669 12.7071 18.746L12.9899 20.7259ZM12.7071 3.25403C13.961 3.43315 14.8083 3.55607 15.439 3.72897C16.0426 3.89442 16.3229 4.07473 16.5109 4.29148L18.0218 2.98108C17.4762 2.35194 16.7757 2.02159 15.9677 1.80012C15.187 1.58611 14.1922 1.44588 12.99 1.27413L12.7071 3.25403ZM19 8.20377C19 6.9893 19.0019 5.98468 18.9004 5.18152C18.7954 4.35041 18.5675 3.61022 18.0218 2.98108L16.5109 4.29148C16.6989 4.50824 16.8377 4.81125 16.9162 5.43216C16.9981 6.081 17 6.93718 17 8.20377H19ZM8.70711 0.662291C7.6749 0.514833 6.79571 0.386858 6.09141 0.385593C5.35883 0.384278 4.63831 0.515883 4.03439 1.03966L5.3448 2.55057C5.43048 2.47626 5.58584 2.38469 6.08782 2.38559C6.61809 2.38654 7.33214 2.48617 8.42426 2.64219L8.70711 0.662291ZM5 5.61204C5 4.50883 5.00235 3.78786 5.0764 3.26279C5.1465 2.76573 5.25912 2.62487 5.3448 2.55057L4.03439 1.03966C3.43048 1.56343 3.1983 2.25809 3.096 2.9835C2.99765 3.6809 3 4.56935 3 5.61204H5Z" fill="#0077E5"/>
<path d="M13 11L13.7809 10.3753L14.2806 11L13.7809 11.6247L13 11ZM1 12C0.447715 12 0 11.5523 0 11C0 10.4477 0.447715 10 1 10V12ZM9.78087 5.3753L13.7809 10.3753L12.2191 11.6247L8.21913 6.6247L9.78087 5.3753ZM13.7809 11.6247L9.78087 16.6247L8.21913 15.3753L12.2191 10.3753L13.7809 11.6247ZM13 12H1V10H13V12Z" fill="#0077E5"/>
</svg>
